# MagicaVoxel @ Ephtracy

# group
o 

# material
mtllib untitled-0.mtl
usemtl palette

# normals
vn -1 0 0
vn 1 0 0
vn 0 0 1
vn 0 0 -1
vn 0 -1 0
vn 0 1 0

# texcoords
vt 0.853516 0.5
vt 0.904297 0.5

# verts
v 4.3 0.1 -1.6
v 4.3 0.1 -1.8
v 4.3 0.2 -1.5
v 4.3 0.2 -1.6
v 4.3 0.2 -1.8
v 4.3 0.3 -1.5
v 4.3 0.3 -1.6
v 4.3 0.4 -1.7
v 4.3 0.4 -1.8
v 4.3 0.6 -1.7
v 4.3 0.6 -1.8
v 4.4 0 -1.7
v 4.4 0 -1.8
v 4.4 0.1 -1.7
v 4.4 0.1 -1.8
v 4.4 0.2 -1.7
v 4.4 0.2 -1.8
v 4.4 0.4 -1.6
v 4.4 0.4 -1.7
v 4.4 0.4 -1.8
v 4.4 0.4 -1.9
v 4.4 0.6 -1.6
v 4.4 0.6 -1.7
v 4.4 0.6 -1.8
v 4.4 0.6 -1.9
v 4.4 0.7 -1.7
v 4.4 0.7 -1.8
v 4.5 0.5 -1.7
v 4.5 0.5 -1.8
v 4.5 0.6 -1.7
v 4.5 0.6 -1.8
v 4.4 0.5 -1.7
v 4.4 0.5 -1.8
v 4.4 0.6 -1.7
v 4.4 0.6 -1.8
v 4.5 0 -1.7
v 4.5 0 -1.8
v 4.5 0.1 -1.7
v 4.5 0.1 -1.8
v 4.5 0.2 -1.7
v 4.5 0.2 -1.8
v 4.5 0.4 -1.6
v 4.5 0.4 -1.7
v 4.5 0.4 -1.8
v 4.5 0.4 -1.9
v 4.5 0.6 -1.6
v 4.5 0.6 -1.7
v 4.5 0.6 -1.8
v 4.5 0.6 -1.9
v 4.5 0.7 -1.7
v 4.5 0.7 -1.8
v 4.6 0.1 -1.6
v 4.6 0.1 -1.8
v 4.6 0.2 -1.5
v 4.6 0.2 -1.6
v 4.6 0.2 -1.8
v 4.6 0.3 -1.5
v 4.6 0.3 -1.6
v 4.6 0.4 -1.7
v 4.6 0.4 -1.8
v 4.6 0.6 -1.7
v 4.6 0.6 -1.8
v 4.3 0.2 -1.5
v 4.3 0.3 -1.5
v 4.6 0.2 -1.5
v 4.6 0.3 -1.5
v 4.3 0.1 -1.6
v 4.3 0.2 -1.6
v 4.4 0.4 -1.6
v 4.4 0.6 -1.6
v 4.5 0.4 -1.6
v 4.5 0.6 -1.6
v 4.6 0.1 -1.6
v 4.6 0.2 -1.6
v 4.3 0.4 -1.7
v 4.3 0.6 -1.7
v 4.4 0 -1.7
v 4.4 0.1 -1.7
v 4.4 0.2 -1.7
v 4.4 0.4 -1.7
v 4.4 0.6 -1.7
v 4.4 0.7 -1.7
v 4.5 0 -1.7
v 4.5 0.1 -1.7
v 4.5 0.2 -1.7
v 4.5 0.4 -1.7
v 4.5 0.6 -1.7
v 4.5 0.7 -1.7
v 4.6 0.4 -1.7
v 4.6 0.6 -1.7
v 4.4 0.5 -1.8
v 4.4 0.6 -1.8
v 4.5 0.5 -1.8
v 4.5 0.6 -1.8
v 4.3 0.2 -1.6
v 4.3 0.3 -1.6
v 4.6 0.2 -1.6
v 4.6 0.3 -1.6
v 4.4 0.5 -1.7
v 4.4 0.6 -1.7
v 4.5 0.5 -1.7
v 4.5 0.6 -1.7
v 4.3 0.1 -1.8
v 4.3 0.2 -1.8
v 4.3 0.4 -1.8
v 4.3 0.6 -1.8
v 4.4 0 -1.8
v 4.4 0.1 -1.8
v 4.4 0.2 -1.8
v 4.4 0.4 -1.8
v 4.4 0.6 -1.8
v 4.4 0.7 -1.8
v 4.5 0 -1.8
v 4.5 0.1 -1.8
v 4.5 0.2 -1.8
v 4.5 0.4 -1.8
v 4.5 0.6 -1.8
v 4.5 0.7 -1.8
v 4.6 0.1 -1.8
v 4.6 0.2 -1.8
v 4.6 0.4 -1.8
v 4.6 0.6 -1.8
v 4.4 0.4 -1.9
v 4.4 0.6 -1.9
v 4.5 0.4 -1.9
v 4.5 0.6 -1.9
v 4.4 0 -1.7
v 4.5 0 -1.7
v 4.4 0 -1.8
v 4.5 0 -1.8
v 4.3 0.1 -1.6
v 4.6 0.1 -1.6
v 4.4 0.1 -1.7
v 4.5 0.1 -1.7
v 4.3 0.1 -1.8
v 4.4 0.1 -1.8
v 4.5 0.1 -1.8
v 4.6 0.1 -1.8
v 4.3 0.2 -1.5
v 4.6 0.2 -1.5
v 4.3 0.2 -1.6
v 4.6 0.2 -1.6
v 4.4 0.4 -1.6
v 4.5 0.4 -1.6
v 4.3 0.4 -1.7
v 4.4 0.4 -1.7
v 4.5 0.4 -1.7
v 4.6 0.4 -1.7
v 4.3 0.4 -1.8
v 4.4 0.4 -1.8
v 4.5 0.4 -1.8
v 4.6 0.4 -1.8
v 4.4 0.4 -1.9
v 4.5 0.4 -1.9
v 4.4 0.6 -1.7
v 4.5 0.6 -1.7
v 4.4 0.6 -1.8
v 4.5 0.6 -1.8
v 4.3 0.2 -1.6
v 4.6 0.2 -1.6
v 4.4 0.2 -1.7
v 4.5 0.2 -1.7
v 4.3 0.2 -1.8
v 4.4 0.2 -1.8
v 4.5 0.2 -1.8
v 4.6 0.2 -1.8
v 4.3 0.3 -1.5
v 4.6 0.3 -1.5
v 4.3 0.3 -1.6
v 4.6 0.3 -1.6
v 4.4 0.5 -1.7
v 4.5 0.5 -1.7
v 4.4 0.5 -1.8
v 4.5 0.5 -1.8
v 4.4 0.6 -1.6
v 4.5 0.6 -1.6
v 4.3 0.6 -1.7
v 4.4 0.6 -1.7
v 4.5 0.6 -1.7
v 4.6 0.6 -1.7
v 4.3 0.6 -1.8
v 4.4 0.6 -1.8
v 4.5 0.6 -1.8
v 4.6 0.6 -1.8
v 4.4 0.6 -1.9
v 4.5 0.6 -1.9
v 4.4 0.7 -1.7
v 4.5 0.7 -1.7
v 4.4 0.7 -1.8
v 4.5 0.7 -1.8

# faces
f 4/2/1 2/2/1 1/2/1
f 5/2/1 2/2/1 4/2/1
f 6/2/1 4/2/1 3/2/1
f 7/2/1 4/2/1 6/2/1
f 10/1/1 9/1/1 8/1/1
f 11/1/1 9/1/1 10/1/1
f 14/2/1 13/2/1 12/2/1
f 15/2/1 13/2/1 14/2/1
f 19/2/1 17/2/1 16/2/1
f 20/2/1 17/2/1 19/2/1
f 22/1/1 19/1/1 18/1/1
f 23/1/1 19/1/1 22/1/1
f 24/1/1 21/1/1 20/1/1
f 25/1/1 21/1/1 24/1/1
f 26/1/1 24/1/1 23/1/1
f 27/1/1 24/1/1 26/1/1
f 30/1/1 29/1/1 28/1/1
f 31/1/1 29/1/1 30/1/1
f 32/1/2 33/1/2 34/1/2
f 34/1/2 33/1/2 35/1/2
f 36/2/2 37/2/2 38/2/2
f 38/2/2 37/2/2 39/2/2
f 40/2/2 41/2/2 43/2/2
f 43/2/2 41/2/2 44/2/2
f 42/1/2 43/1/2 46/1/2
f 46/1/2 43/1/2 47/1/2
f 44/1/2 45/1/2 48/1/2
f 48/1/2 45/1/2 49/1/2
f 47/1/2 48/1/2 50/1/2
f 50/1/2 48/1/2 51/1/2
f 52/2/2 53/2/2 55/2/2
f 55/2/2 53/2/2 56/2/2
f 54/2/2 55/2/2 57/2/2
f 57/2/2 55/2/2 58/2/2
f 59/1/2 60/1/2 61/1/2
f 61/1/2 60/1/2 62/1/2
f 65/2/3 64/2/3 63/2/3
f 66/2/3 64/2/3 65/2/3
f 71/1/3 70/1/3 69/1/3
f 72/1/3 70/1/3 71/1/3
f 73/2/3 68/2/3 67/2/3
f 74/2/3 68/2/3 73/2/3
f 80/1/3 76/1/3 75/1/3
f 81/1/3 76/1/3 80/1/3
f 83/2/3 78/2/3 77/2/3
f 84/2/3 78/2/3 83/2/3
f 85/2/3 80/2/3 79/2/3
f 86/2/3 80/2/3 85/2/3
f 87/1/3 82/1/3 81/1/3
f 88/1/3 82/1/3 87/1/3
f 89/1/3 87/1/3 86/1/3
f 90/1/3 87/1/3 89/1/3
f 93/1/3 92/1/3 91/1/3
f 94/1/3 92/1/3 93/1/3
f 95/2/4 96/2/4 97/2/4
f 97/2/4 96/2/4 98/2/4
f 99/1/4 100/1/4 101/1/4
f 101/1/4 100/1/4 102/1/4
f 103/2/4 104/2/4 108/2/4
f 108/2/4 104/2/4 109/2/4
f 105/1/4 106/1/4 110/1/4
f 110/1/4 106/1/4 111/1/4
f 108/2/4 109/2/4 113/2/4
f 107/2/4 108/2/4 113/2/4
f 109/2/4 110/2/4 113/2/4
f 113/2/4 110/2/4 114/2/4
f 114/2/4 110/2/4 115/2/4
f 115/2/4 110/2/4 116/2/4
f 111/1/4 112/1/4 117/1/4
f 117/1/4 112/1/4 118/1/4
f 114/2/4 115/2/4 119/2/4
f 119/2/4 115/2/4 120/2/4
f 116/1/4 117/1/4 121/1/4
f 121/1/4 117/1/4 122/1/4
f 123/1/4 124/1/4 125/1/4
f 125/1/4 124/1/4 126/1/4
f 129/2/5 128/2/5 127/2/5
f 130/2/5 128/2/5 129/2/5
f 133/2/5 132/2/5 131/2/5
f 134/2/5 132/2/5 133/2/5
f 135/2/5 133/2/5 131/2/5
f 136/2/5 133/2/5 135/2/5
f 137/2/5 132/2/5 134/2/5
f 138/2/5 132/2/5 137/2/5
f 141/2/5 140/2/5 139/2/5
f 142/2/5 140/2/5 141/2/5
f 146/1/5 144/1/5 143/1/5
f 147/1/5 144/1/5 146/1/5
f 149/1/5 146/1/5 145/1/5
f 150/1/5 146/1/5 149/1/5
f 151/1/5 148/1/5 147/1/5
f 152/1/5 148/1/5 151/1/5
f 153/1/5 151/1/5 150/1/5
f 154/1/5 151/1/5 153/1/5
f 157/1/5 156/1/5 155/1/5
f 158/1/5 156/1/5 157/1/5
f 159/2/6 160/2/6 161/2/6
f 161/2/6 160/2/6 162/2/6
f 159/2/6 161/2/6 163/2/6
f 163/2/6 161/2/6 164/2/6
f 162/2/6 160/2/6 165/2/6
f 165/2/6 160/2/6 166/2/6
f 167/2/6 168/2/6 169/2/6
f 169/2/6 168/2/6 170/2/6
f 171/1/6 172/1/6 173/1/6
f 173/1/6 172/1/6 174/1/6
f 175/1/6 176/1/6 178/1/6
f 178/1/6 176/1/6 179/1/6
f 177/1/6 178/1/6 181/1/6
f 181/1/6 178/1/6 182/1/6
f 179/1/6 180/1/6 183/1/6
f 183/1/6 180/1/6 184/1/6
f 182/1/6 183/1/6 185/1/6
f 185/1/6 183/1/6 186/1/6
f 187/1/6 188/1/6 189/1/6
f 189/1/6 188/1/6 190/1/6
