# MagicaVoxel @ Ephtracy

# group
o 

# material
mtllib untitled-1.mtl
usemtl palette

# normals
vn -1 0 0
vn 1 0 0
vn 0 0 1
vn 0 0 -1
vn 0 -1 0
vn 0 1 0

# texcoords
vt 0.181641 0.5
vt 0.654297 0.5
vt 0.779297 0.5

# verts
v 4.3 0.1 2.4
v 4.3 0.1 2.2
v 4.3 0.2 2.5
v 4.3 0.2 2.4
v 4.3 0.2 2.2
v 4.3 0.3 2.5
v 4.3 0.3 2.4
v 4.3 0.4 2.4
v 4.3 0.4 2.1
v 4.3 0.5 2.4
v 4.3 0.5 2.1
v 4.4 0 2.3
v 4.4 0 2.2
v 4.4 0.1 2.3
v 4.4 0.1 2.2
v 4.4 0.2 2.3
v 4.4 0.2 2.2
v 4.4 0.4 2.3
v 4.4 0.4 2.2
v 4.5 0 2.3
v 4.5 0 2.2
v 4.5 0.1 2.3
v 4.5 0.1 2.2
v 4.5 0.2 2.3
v 4.5 0.2 2.2
v 4.5 0.4 2.3
v 4.5 0.4 2.2
v 4.6 0.1 2.4
v 4.6 0.1 2.2
v 4.6 0.2 2.5
v 4.6 0.2 2.4
v 4.6 0.2 2.2
v 4.6 0.3 2.5
v 4.6 0.3 2.4
v 4.6 0.4 2.4
v 4.6 0.4 2.1
v 4.6 0.5 2.4
v 4.6 0.5 2.1
v 4.3 0.2 2.5
v 4.3 0.3 2.5
v 4.6 0.2 2.5
v 4.6 0.3 2.5
v 4.3 0.1 2.4
v 4.3 0.2 2.4
v 4.3 0.4 2.4
v 4.3 0.5 2.4
v 4.6 0.1 2.4
v 4.6 0.2 2.4
v 4.6 0.4 2.4
v 4.6 0.5 2.4
v 4.4 0 2.3
v 4.4 0.1 2.3
v 4.4 0.2 2.3
v 4.4 0.4 2.3
v 4.5 0 2.3
v 4.5 0.1 2.3
v 4.5 0.2 2.3
v 4.5 0.4 2.3
v 4.3 0.2 2.4
v 4.3 0.3 2.4
v 4.6 0.2 2.4
v 4.6 0.3 2.4
v 4.3 0.1 2.2
v 4.3 0.2 2.2
v 4.4 0 2.2
v 4.4 0.1 2.2
v 4.4 0.2 2.2
v 4.4 0.4 2.2
v 4.5 0 2.2
v 4.5 0.1 2.2
v 4.5 0.2 2.2
v 4.5 0.4 2.2
v 4.6 0.1 2.2
v 4.6 0.2 2.2
v 4.3 0.4 2.1
v 4.3 0.5 2.1
v 4.6 0.4 2.1
v 4.6 0.5 2.1
v 4.4 0 2.3
v 4.5 0 2.3
v 4.4 0 2.2
v 4.5 0 2.2
v 4.3 0.1 2.4
v 4.6 0.1 2.4
v 4.4 0.1 2.3
v 4.5 0.1 2.3
v 4.3 0.1 2.2
v 4.4 0.1 2.2
v 4.5 0.1 2.2
v 4.6 0.1 2.2
v 4.3 0.2 2.5
v 4.6 0.2 2.5
v 4.3 0.2 2.4
v 4.6 0.2 2.4
v 4.3 0.4 2.4
v 4.6 0.4 2.4
v 4.4 0.4 2.3
v 4.5 0.4 2.3
v 4.4 0.4 2.2
v 4.5 0.4 2.2
v 4.3 0.4 2.1
v 4.6 0.4 2.1
v 4.3 0.2 2.4
v 4.6 0.2 2.4
v 4.4 0.2 2.3
v 4.5 0.2 2.3
v 4.3 0.2 2.2
v 4.4 0.2 2.2
v 4.5 0.2 2.2
v 4.6 0.2 2.2
v 4.3 0.3 2.5
v 4.6 0.3 2.5
v 4.3 0.3 2.4
v 4.6 0.3 2.4
v 4.3 0.5 2.4
v 4.6 0.5 2.4
v 4.4 0.5 2.3
v 4.5 0.5 2.3
v 4.4 0.5 2.2
v 4.5 0.5 2.2
v 4.3 0.5 2.1
v 4.6 0.5 2.1

# faces
f 4/2/1 2/2/1 1/2/1
f 5/2/1 2/2/1 4/2/1
f 6/2/1 4/2/1 3/2/1
f 7/2/1 4/2/1 6/2/1
f 10/3/1 9/3/1 8/3/1
f 11/3/1 9/3/1 10/3/1
f 14/2/1 13/2/1 12/2/1
f 15/2/1 13/2/1 14/2/1
f 18/2/1 17/2/1 16/2/1
f 19/2/1 17/2/1 18/2/1
f 20/2/2 21/2/2 22/2/2
f 22/2/2 21/2/2 23/2/2
f 24/2/2 25/2/2 26/2/2
f 26/2/2 25/2/2 27/2/2
f 28/2/2 29/2/2 31/2/2
f 31/2/2 29/2/2 32/2/2
f 30/2/2 31/2/2 33/2/2
f 33/2/2 31/2/2 34/2/2
f 35/3/2 36/3/2 37/3/2
f 37/3/2 36/3/2 38/3/2
f 41/2/3 40/2/3 39/2/3
f 42/2/3 40/2/3 41/2/3
f 47/2/3 44/2/3 43/2/3
f 48/2/3 44/2/3 47/2/3
f 49/3/3 46/3/3 45/3/3
f 50/3/3 46/3/3 49/3/3
f 55/2/3 52/2/3 51/2/3
f 56/2/3 52/2/3 55/2/3
f 57/2/3 54/2/3 53/2/3
f 58/2/3 54/2/3 57/2/3
f 59/2/4 60/2/4 61/2/4
f 61/2/4 60/2/4 62/2/4
f 63/2/4 64/2/4 66/2/4
f 66/2/4 64/2/4 67/2/4
f 65/2/4 66/2/4 69/2/4
f 67/2/4 68/2/4 69/2/4
f 66/2/4 67/2/4 69/2/4
f 69/2/4 68/2/4 70/2/4
f 70/2/4 68/2/4 71/2/4
f 71/2/4 68/2/4 72/2/4
f 70/2/4 71/2/4 73/2/4
f 73/2/4 71/2/4 74/2/4
f 75/3/4 76/3/4 77/3/4
f 77/3/4 76/3/4 78/3/4
f 81/2/5 80/2/5 79/2/5
f 82/2/5 80/2/5 81/2/5
f 85/2/5 84/2/5 83/2/5
f 86/2/5 84/2/5 85/2/5
f 87/2/5 85/2/5 83/2/5
f 88/2/5 85/2/5 87/2/5
f 89/2/5 84/2/5 86/2/5
f 90/2/5 84/2/5 89/2/5
f 93/2/5 92/2/5 91/2/5
f 94/2/5 92/2/5 93/2/5
f 97/3/5 96/3/5 95/3/5
f 98/3/5 96/3/5 97/3/5
f 99/3/5 97/3/5 95/3/5
f 100/3/5 96/3/5 98/3/5
f 101/3/5 99/3/5 95/3/5
f 101/3/5 100/3/5 99/3/5
f 102/3/5 96/3/5 100/3/5
f 102/3/5 100/3/5 101/3/5
f 103/2/6 104/2/6 105/2/6
f 105/2/6 104/2/6 106/2/6
f 103/2/6 105/2/6 107/2/6
f 107/2/6 105/2/6 108/2/6
f 106/2/6 104/2/6 109/2/6
f 109/2/6 104/2/6 110/2/6
f 111/2/6 112/2/6 113/2/6
f 113/2/6 112/2/6 114/2/6
f 115/3/6 116/3/6 117/3/6
f 117/3/6 116/3/6 118/3/6
f 115/3/6 117/3/6 119/3/6
f 117/1/6 118/1/6 119/1/6
f 118/3/6 116/3/6 120/3/6
f 119/1/6 118/1/6 120/1/6
f 115/3/6 119/3/6 121/3/6
f 119/3/6 120/3/6 121/3/6
f 120/3/6 116/3/6 122/3/6
f 121/3/6 120/3/6 122/3/6
