# MagicaVoxel @ Ephtracy

# group
o 

# material
mtllib untitled-2.mtl
usemtl palette

# normals
vn -1 0 0
vn 1 0 0
vn 0 0 1
vn 0 0 -1
vn 0 -1 0
vn 0 1 0

# texcoords
vt 0.162109 0.5
vt 0.794922 0.5
vt 0.958984 0.5

# verts
v 0.3 0.4 -1.7
v 0.3 0.4 -1.8
v 0.3 0.5 -1.7
v 0.3 0.5 -1.8
v 0.4 0 -1.7
v 0.4 0 -1.8
v 0.4 0.1 -1.6
v 0.4 0.1 -1.7
v 0.4 0.2 -1.5
v 0.4 0.2 -1.6
v 0.4 0.2 -1.7
v 0.4 0.3 -1.5
v 0.4 0.3 -1.6
v 0.4 0.4 -1.6
v 0.4 0.4 -1.7
v 0.4 0.4 -1.8
v 0.4 0.4 -1.9
v 0.4 0.5 -1.6
v 0.4 0.5 -1.7
v 0.4 0.5 -1.8
v 0.4 0.5 -1.9
v 0.6 0.2 -1.6
v 0.6 0.2 -1.8
v 0.6 0.3 -1.6
v 0.6 0.3 -1.8
v 0.5 0 -1.7
v 0.5 0 -1.8
v 0.5 0.1 -1.7
v 0.5 0.1 -1.8
v 0.5 0.2 -1.7
v 0.5 0.2 -1.8
v 0.5 0.4 -1.6
v 0.5 0.4 -1.7
v 0.5 0.4 -1.8
v 0.5 0.4 -1.9
v 0.5 0.5 -1.6
v 0.5 0.5 -1.7
v 0.5 0.5 -1.8
v 0.5 0.5 -1.9
v 0.6 0.1 -1.6
v 0.6 0.1 -1.8
v 0.6 0.2 -1.5
v 0.6 0.2 -1.6
v 0.6 0.2 -1.8
v 0.6 0.3 -1.5
v 0.6 0.3 -1.6
v 0.6 0.4 -1.7
v 0.6 0.4 -1.8
v 0.6 0.5 -1.7
v 0.6 0.5 -1.8
v 0.7 0.2 -1.6
v 0.7 0.2 -1.8
v 0.7 0.3 -1.6
v 0.7 0.3 -1.8
v 0.4 0.2 -1.5
v 0.4 0.3 -1.5
v 0.6 0.2 -1.5
v 0.6 0.3 -1.5
v 0.4 0.1 -1.6
v 0.4 0.2 -1.6
v 0.4 0.4 -1.6
v 0.4 0.5 -1.6
v 0.5 0.4 -1.6
v 0.5 0.5 -1.6
v 0.6 0.1 -1.6
v 0.6 0.2 -1.6
v 0.6 0.3 -1.6
v 0.7 0.2 -1.6
v 0.7 0.3 -1.6
v 0.3 0.4 -1.7
v 0.3 0.5 -1.7
v 0.4 0 -1.7
v 0.4 0.1 -1.7
v 0.4 0.2 -1.7
v 0.4 0.4 -1.7
v 0.4 0.5 -1.7
v 0.5 0 -1.7
v 0.5 0.1 -1.7
v 0.5 0.2 -1.7
v 0.5 0.4 -1.7
v 0.5 0.5 -1.7
v 0.6 0.4 -1.7
v 0.6 0.5 -1.7
v 0.4 0.2 -1.6
v 0.4 0.3 -1.6
v 0.6 0.2 -1.6
v 0.6 0.3 -1.6
v 0.3 0.4 -1.8
v 0.3 0.5 -1.8
v 0.4 0 -1.8
v 0.4 0.4 -1.8
v 0.4 0.5 -1.8
v 0.5 0 -1.8
v 0.5 0.1 -1.8
v 0.5 0.2 -1.8
v 0.5 0.4 -1.8
v 0.5 0.5 -1.8
v 0.6 0.1 -1.8
v 0.6 0.2 -1.8
v 0.6 0.3 -1.8
v 0.6 0.4 -1.8
v 0.6 0.5 -1.8
v 0.7 0.2 -1.8
v 0.7 0.3 -1.8
v 0.4 0.4 -1.9
v 0.4 0.5 -1.9
v 0.5 0.4 -1.9
v 0.5 0.5 -1.9
v 0.4 0 -1.7
v 0.5 0 -1.7
v 0.4 0 -1.8
v 0.5 0 -1.8
v 0.4 0.1 -1.6
v 0.6 0.1 -1.6
v 0.4 0.1 -1.7
v 0.5 0.1 -1.7
v 0.5 0.1 -1.8
v 0.6 0.1 -1.8
v 0.4 0.2 -1.5
v 0.6 0.2 -1.5
v 0.4 0.2 -1.6
v 0.6 0.2 -1.6
v 0.7 0.2 -1.6
v 0.6 0.2 -1.8
v 0.7 0.2 -1.8
v 0.4 0.4 -1.6
v 0.5 0.4 -1.6
v 0.3 0.4 -1.7
v 0.4 0.4 -1.7
v 0.5 0.4 -1.7
v 0.6 0.4 -1.7
v 0.3 0.4 -1.8
v 0.4 0.4 -1.8
v 0.5 0.4 -1.8
v 0.6 0.4 -1.8
v 0.4 0.4 -1.9
v 0.5 0.4 -1.9
v 0.4 0.2 -1.6
v 0.6 0.2 -1.6
v 0.4 0.2 -1.7
v 0.5 0.2 -1.7
v 0.5 0.2 -1.8
v 0.6 0.2 -1.8
v 0.4 0.3 -1.5
v 0.6 0.3 -1.5
v 0.4 0.3 -1.6
v 0.6 0.3 -1.6
v 0.7 0.3 -1.6
v 0.6 0.3 -1.8
v 0.7 0.3 -1.8
v 0.4 0.5 -1.6
v 0.5 0.5 -1.6
v 0.3 0.5 -1.7
v 0.4 0.5 -1.7
v 0.5 0.5 -1.7
v 0.6 0.5 -1.7
v 0.3 0.5 -1.8
v 0.4 0.5 -1.8
v 0.5 0.5 -1.8
v 0.6 0.5 -1.8
v 0.4 0.5 -1.9
v 0.5 0.5 -1.9

# faces
f 3/3/1 2/3/1 1/3/1
f 4/3/1 2/3/1 3/3/1
f 8/2/1 6/2/1 5/2/1
f 10/2/1 8/2/1 7/2/1
f 11/2/1 6/2/1 8/2/1
f 11/2/1 8/2/1 10/2/1
f 12/2/1 10/2/1 9/2/1
f 13/2/1 10/2/1 12/2/1
f 15/2/1 6/2/1 11/2/1
f 16/2/1 6/2/1 15/2/1
f 18/3/1 15/3/1 14/3/1
f 19/3/1 15/3/1 18/3/1
f 20/3/1 17/3/1 16/3/1
f 21/3/1 17/3/1 20/3/1
f 24/2/1 23/2/1 22/2/1
f 25/2/1 23/2/1 24/2/1
f 26/2/2 27/2/2 28/2/2
f 28/2/2 27/2/2 29/2/2
f 30/2/2 31/2/2 33/2/2
f 33/2/2 31/2/2 34/2/2
f 32/3/2 33/3/2 36/3/2
f 36/3/2 33/3/2 37/3/2
f 34/3/2 35/3/2 38/3/2
f 38/3/2 35/3/2 39/3/2
f 40/2/2 41/2/2 43/2/2
f 43/2/2 41/2/2 44/2/2
f 42/2/2 43/2/2 45/2/2
f 45/2/2 43/2/2 46/2/2
f 47/3/2 48/3/2 49/3/2
f 49/3/2 48/3/2 50/3/2
f 51/2/2 52/2/2 53/2/2
f 53/2/2 52/2/2 54/2/2
f 57/2/3 56/2/3 55/2/3
f 58/2/3 56/2/3 57/2/3
f 63/3/3 62/3/3 61/3/3
f 64/3/3 62/3/3 63/3/3
f 65/2/3 60/2/3 59/2/3
f 66/2/3 60/2/3 65/2/3
f 68/2/3 67/2/3 66/2/3
f 69/2/3 67/2/3 68/2/3
f 75/3/3 71/3/3 70/3/3
f 76/3/3 71/3/3 75/3/3
f 77/2/3 73/2/3 72/2/3
f 78/2/3 73/2/3 77/2/3
f 79/2/3 75/2/3 74/2/3
f 80/2/3 75/2/3 79/2/3
f 82/3/3 81/3/3 80/3/3
f 83/3/3 81/3/3 82/3/3
f 84/2/4 85/2/4 86/2/4
f 86/2/4 85/2/4 87/2/4
f 88/3/4 89/3/4 91/3/4
f 91/3/4 89/3/4 92/3/4
f 90/2/4 91/2/4 93/2/4
f 93/2/4 91/2/4 94/2/4
f 94/2/4 91/2/4 95/2/4
f 95/2/4 91/2/4 96/2/4
f 94/2/4 95/2/4 98/2/4
f 98/2/4 95/2/4 99/2/4
f 96/3/4 97/3/4 101/3/4
f 101/3/4 97/3/4 102/3/4
f 99/2/4 100/2/4 103/2/4
f 103/2/4 100/2/4 104/2/4
f 105/3/4 106/3/4 107/3/4
f 107/3/4 106/3/4 108/3/4
f 111/2/5 110/2/5 109/2/5
f 112/2/5 110/2/5 111/2/5
f 115/2/5 114/2/5 113/2/5
f 116/2/5 114/2/5 115/2/5
f 117/2/5 114/2/5 116/2/5
f 118/2/5 114/2/5 117/2/5
f 121/2/5 120/2/5 119/2/5
f 122/2/5 120/2/5 121/2/5
f 124/2/5 123/2/5 122/2/5
f 125/2/5 123/2/5 124/2/5
f 129/3/5 127/3/5 126/3/5
f 130/3/5 127/3/5 129/3/5
f 132/3/5 129/3/5 128/3/5
f 133/3/5 129/3/5 132/3/5
f 134/3/5 131/3/5 130/3/5
f 135/3/5 131/3/5 134/3/5
f 136/3/5 134/3/5 133/3/5
f 137/3/5 134/3/5 136/3/5
f 138/2/6 139/2/6 140/2/6
f 140/2/6 139/2/6 141/2/6
f 141/2/6 139/2/6 142/2/6
f 142/2/6 139/2/6 143/2/6
f 144/2/6 145/2/6 146/2/6
f 146/2/6 145/2/6 147/2/6
f 147/2/6 148/2/6 149/2/6
f 149/2/6 148/2/6 150/2/6
f 151/3/6 152/3/6 154/3/6
f 154/3/6 152/3/6 155/3/6
f 153/3/6 154/3/6 157/3/6
f 154/1/6 155/1/6 158/1/6
f 157/3/6 154/3/6 158/3/6
f 155/3/6 156/3/6 159/3/6
f 158/1/6 155/1/6 159/1/6
f 159/3/6 156/3/6 160/3/6
f 158/3/6 159/3/6 161/3/6
f 161/3/6 159/3/6 162/3/6
